<svg xmlns="http://www.w3.org/2000/svg" xmlns:xlink="http://www.w3.org/1999/xlink" xml:space="preserve" version="1.1" style="shape-rendering:geometricPrecision;text-rendering:geometricPrecision;image-rendering:optimizeQuality;" viewBox="0 0 50000 62500" x="0px" y="0px" fill-rule="evenodd" clip-rule="evenodd"><defs><style type="text/css">
   
    .fil0 {fill:black;fill-rule:nonzero}
   
  </style></defs><g><path class="fil0" d="M1773.38 15196.43c-328.84,0 -328.84,-500 0,-500l3185.39 0c-687.54,-812.65 -1624.63,-1469.05 -3215.44,-1496.64 -327.51,-5.12 -319.77,-503.16 7.82,-498.04 2014.77,34.94 3072.01,950.89 3847.41,1994.68l807.83 0c-784.94,-2364.32 -1828.87,-4287.21 -4635.56,-4260.94 -327.58,2.55 -331.42,-495.49 -3.9,-498.04 3125.14,-29.24 4310.59,2118.09 5163.56,4758.98l3959.73 0c611.07,-2192.69 1539.8,-8287.8 4637.96,-8289.83 1573.82,-1.03 2574.4,1497.76 3358.65,3604.76 865.69,-2562.65 2859.98,-7050.96 6080.43,-7089.43 3288.63,-39.23 5241.91,4353.34 6118.57,6957.09 826.5,-2050.36 1891.55,-3489.66 3531.44,-3460.29 2983.86,53.44 3857.05,5887.04 4530.09,8277.7l3851.06 0c695.59,-2289.95 2079.45,-4865.7 5260.55,-4769.78 327.52,8.98 313.9,507.02 -13.68,498.04 -2774.44,-83.66 -4055.41,2174.21 -4722.85,4271.74l994.64 0c837.75,-1100.06 1888.12,-2062.55 3741.5,-2012.57 327.52,7.69 315.86,505.73 -11.72,498.04 -1449.01,-39.07 -2364.03,651.53 -3089.57,1514.53l3082.42 0c328.84,0 328.84,500 0,500l-3472.82 0c-580.92,791.34 -1154.64,1812.22 -1933,2392.87 -308.38,1433.61 -993.47,4508.71 -2179.49,6748.48 -1820.57,3438.1 -4706.24,3581.41 -6512.18,21.76 -1436.6,-2831.65 -1861.47,-7210.9 -2226.17,-9163.11l-1922 0c-1107.52,4189.45 -2241.09,8320.04 -5008.41,8289.69 -2856.51,-31.31 -4035.16,-4131.57 -5117.75,-8289.69l-1776.21 0c-577.4,3137.37 -721.42,6271.35 -2267.75,9166.16 -1828.48,3422.98 -4373.01,3462.52 -6305.41,117.46 -1176.91,-2037.26 -1837.16,-4568.35 -2334.17,-6851.12 -765.66,-567.5 -1284.15,-1642.76 -1841.56,-2432.5l-3569.41 0zm6002.06 24702.22c1759.23,123.8 3125.44,1591.38 3125.44,3356.66 0,1858.45 -1506.67,3365.12 -3365.12,3365.12 -1858.45,0 -3365.12,-1506.67 -3365.12,-3365.12 0,-1757.3 1354.45,-3221.27 3104.8,-3355.2l0 -6568.33c0,-138.07 111.93,-250 250,-250l17381.12 0 0 -6614.35c0,-328.84 500,-328.84 500,0l0 6614.35 17302.03 0c138.07,0 250,111.93 250,250l0 6058.7c196.8,43.68 383.82,141.76 536.34,294.27l2760.42 2760.42c425.27,425.27 425.29,1127.37 0,1552.64l-2760.42 2760.42c-426.8,426.8 -1125.89,426.77 -1552.65,0.01l-2760.42 -2760.42c-425.28,-425.3 -425.28,-1127.36 0,-1552.66l2760.42 -2760.42c147.34,-147.33 326.87,-243.87 516.31,-289.63l0 -5813.33 -17052.03 0 0 6329.97 1901.17 0c651.96,0 1184.48,532.52 1184.48,1184.48l0 4302.34c0,651.98 -532.5,1184.48 -1184.48,1184.48l-4302.34 0c-651.96,0 -1184.48,-532.52 -1184.48,-1184.48l0 -4302.34c0,-651.96 532.52,-1184.48 1184.48,-1184.48l1901.17 0 0 -6329.97 -17131.12 0 0 6316.87zm-239.68 491.53c-1582.4,0 -2865.12,1282.73 -2865.12,2865.13 0,1582.4 1282.72,2865.12 2865.12,2865.12 1582.4,0 2865.12,-1282.72 2865.12,-2865.12 0,-1582.4 -1282.72,-2865.13 -2865.12,-2865.13zm34760.04 -351.92l-2760.42 2760.42c-231.04,231.06 -231.04,614.56 0,845.62l2760.42 2760.42c232.8,232.8 612.86,232.74 845.61,-0.01l2760.42 -2760.42c231.05,-231.03 231.04,-614.56 0,-845.6l-2760.42 -2760.42c-230.23,-230.21 -615.62,-229.98 -845.61,-0.01zm-14988.07 373.49l-4302.34 0c-375.94,0 -684.48,308.54 -684.48,684.48l0 4302.34c0,375.95 308.53,684.48 684.48,684.48l4302.34 0c375.96,0 684.48,-308.52 684.48,-684.48l0 -4302.34c0,-375.95 -308.53,-684.48 -684.48,-684.48zm-15901.63 -25715.32l6272.06 0c253.89,-1316.07 564.88,-2624.11 957.84,-3905.74 -751.54,-2241.82 -1672.57,-3886.99 -3107.82,-3886.05 -2642.46,1.76 -3613.8,5914.16 -4122.08,7791.79zm19922.41 -4061.93c408.01,1331.79 732.82,2694.9 1000.02,4061.93l6300.3 0c-574.32,-2110.25 -1501.87,-7734.58 -4019.38,-7779.66 -1507.69,-27 -2492.48,1544.34 -3280.94,3717.73zm12824.9 4561.93l-780.01 0c-156.68,560.41 -273.09,1094.03 -366.91,1550.13 428.46,-468.83 781.07,-1029.04 1146.92,-1550.13zm-14675.37 0l-9095.15 0c1026.16,3932.54 2148.16,7764.69 4606.65,7791.65 2359.12,25.87 3441.16,-3833.82 4488.5,-7791.65zm-22501.11 1527.56c-133.41,-551.6 -270.3,-1059.93 -412.02,-1527.56l-618.1 0c335.11,507.47 644.26,1060.74 1030.12,1527.56zm648.84 588.6c1704.34,1044.4 2686.42,-768.77 3115.7,-2116.16l-3656.4 0c188.1,634.68 367.35,1338.06 540.7,2116.16zm11532.33 -6524.9c422.62,1282.53 755.94,2601.79 1094.79,3908.74l9357.31 0c374.61,-1417.14 751.75,-2826.99 1193.61,-4070.93 -766.58,-2454.76 -2665.64,-7243.31 -5830.69,-7205.53 -3054.09,36.49 -4991.14,4788.68 -5755.38,7178.95 -19.98,62.5 -39.87,125.42 -59.64,188.77zm20141.25 4408.74c450.27,1368.94 1449.51,3119.64 3090.02,2083.87 24.75,-118.01 43.57,-211.24 63.61,-310.49 100.11,-495.75 224.69,-1112.52 402.47,-1773.38l-3556.1 0zm2951.73 2720.57c-1938.7,755.45 -2982.54,-1150.31 -3476.19,-2720.57l-6351.37 0c336.8,1824.89 775.81,6417.06 2265.96,9137.72 1592.51,2907.55 3848.2,2780.64 5399.67,1.79 1166.3,-2088.97 1876.47,-5141.79 2161.93,-6418.94zm-11201.82 -6465.33c-328.81,1016.53 -627.19,2126.53 -923.06,3244.76l1693.72 0c-215.67,-1090.25 -468.3,-2175.28 -770.66,-3244.76zm-11311.2 3244.76c-264.74,-1021.34 -527.97,-2045.43 -832.51,-3055.72 -282.88,1007.45 -518.39,2028.79 -719.03,3055.72l1551.54 0zm-8475.65 500c-490.81,1605.4 -1457.18,3472.74 -3500.04,2743.93 598.61,2726.12 1350.41,4840.16 2187.79,6289.69 1739.01,3010.27 3786.95,2982.1 5434.31,-101.84 1497.55,-2803.5 1646.37,-5885.58 2200.04,-8931.78l-6322.1 0z"/></g><text x="0" y="50015" fill="#000000" font-size="5px" font-weight="bold" font-family="'Helvetica Neue', Helvetica, Arial-Unicode, Arial, Sans-serif">Created by Oleksandr Panasovskyi</text><text x="0" y="50020" fill="#000000" font-size="5px" font-weight="bold" font-family="'Helvetica Neue', Helvetica, Arial-Unicode, Arial, Sans-serif">from the Noun Project</text></svg>